<svg width="457" height="330" viewBox="0 0 457 330" fill="none" xmlns="http://www.w3.org/2000/svg">
<g clip-path="url(#clip0_94_5579)">
<path d="M284.655 329.714C289.151 320.002 293.644 310.147 295.595 299.624C297.546 289.102 296.727 277.682 291.139 268.555C285.55 259.428 274.546 253.24 264.045 255.303C255.42 256.997 248.495 263.79 244.44 271.589C240.385 279.387 238.758 288.183 237.18 296.83C236.671 287.006 236.131 277.025 232.868 267.745C229.604 258.465 223.178 249.817 214.02 246.226C204.862 242.635 192.949 245.459 188.122 254.03C181.322 266.106 190.339 283.044 182.519 294.486C181.178 283.009 169.176 273.941 157.769 275.787C146.362 277.632 137.831 290.022 140.178 301.337C141.574 308.07 146.168 313.796 151.66 317.933C157.152 322.07 163.539 326.865 169.857 329.577L284.655 329.714Z" fill="#D9DBE9"/>
<path d="M146.167 283.895C155.228 287.063 164.372 290.266 172.645 295.217C180.059 299.655 186.661 305.63 190.83 313.282C193.115 317.387 194.471 321.943 194.804 326.629C194.864 327.609 196.397 327.616 196.337 326.629C195.801 317.903 191.548 309.917 185.659 303.601C179.202 296.676 170.835 291.947 162.197 288.277C157.075 286.102 151.825 284.253 146.574 282.417C145.641 282.091 145.24 283.571 146.167 283.895V283.895Z" fill="white"/>
<path d="M198.432 247.747C203.999 257.022 208.457 266.918 211.715 277.233C214.978 287.545 217.034 298.2 217.841 308.985C218.287 315.023 218.336 321.083 217.987 327.127C217.93 328.113 219.463 328.109 219.52 327.127C220.138 316.23 219.479 305.298 217.555 294.555C215.634 283.812 212.477 273.328 208.146 263.311C205.715 257.685 202.912 252.227 199.756 246.974C199.65 246.806 199.482 246.685 199.289 246.638C199.096 246.591 198.892 246.621 198.72 246.721C198.549 246.821 198.423 246.985 198.369 247.176C198.315 247.368 198.338 247.572 198.432 247.747V247.747Z" fill="white"/>
<path d="M273.458 256.553C265.584 274.245 260.043 292.886 256.973 312.007C256.112 317.377 255.445 322.774 254.972 328.198C254.887 329.181 256.42 329.175 256.505 328.198C258.174 309.12 262.298 290.337 268.773 272.314C270.592 267.246 272.595 262.251 274.782 257.326C275.179 256.433 273.858 255.652 273.458 256.553V256.553Z" fill="white"/>
<path d="M54.1977 328.567C38.4929 324.48 24.6152 315.238 14.7892 302.322C4.9633 289.407 -0.24188 273.567 0.00811414 257.341C0.070396 253.298 0.49547 249.171 2.19494 245.502C3.89441 241.833 7.05115 238.66 10.9999 237.791C15.3093 236.842 19.8567 238.781 23.0683 241.807C26.2798 244.834 28.3856 248.826 30.323 252.791C41.9924 276.67 50.8585 302.293 54.178 328.663L54.1977 328.567Z" fill="#D9DBE9"/>
<path d="M9.04494 238.588L17.2235 257.17L25.4021 275.752C27.9922 281.637 30.5775 287.525 33.2547 293.371C35.9084 299.166 38.6531 304.921 41.5811 310.583C44.5049 316.237 47.6124 321.798 50.9854 327.197C51.4055 327.869 51.8297 328.539 52.258 329.206C52.5544 329.668 53.2953 329.24 52.9968 328.774C49.5591 323.415 46.3914 317.888 43.4204 312.258C40.4463 306.622 37.6665 300.885 34.9894 295.102C32.298 289.289 29.7101 283.429 27.129 277.566C24.4122 271.394 21.6959 265.222 18.9801 259.051L10.8015 240.468L9.78375 238.156C9.56241 237.653 8.82494 238.088 9.04489 238.588L9.04494 238.588Z" fill="white"/>
<path d="M50.7863 328.696C41.5291 330.814 31.8291 329.762 23.241 325.709C14.6529 321.657 7.67426 314.838 3.42361 306.346C2.36455 304.23 1.47093 301.972 1.36284 299.609C1.25474 297.245 2.03703 294.746 3.85246 293.228C5.83373 291.572 8.71823 291.352 11.2025 292.056C13.6869 292.76 15.858 294.264 17.9341 295.8C30.4393 305.047 41.9596 315.957 50.802 328.751L50.7863 328.696Z" fill="#D9DBE9"/>
<path d="M3.0525 294.17L12.3152 301.61L21.578 309.049C24.5115 311.406 27.4432 313.764 30.4114 316.077C33.3535 318.369 36.3321 320.616 39.3807 322.765C42.4251 324.911 45.5398 326.96 48.7486 328.852C49.1481 329.088 49.5492 329.321 49.9516 329.552C50.2302 329.711 50.4992 329.289 50.2186 329.128C46.9871 327.274 43.8503 325.259 40.7879 323.138C37.7222 321.015 34.7303 318.787 31.7793 316.507C28.8126 314.216 25.8869 311.872 22.9641 309.525C19.8875 307.054 16.8111 304.583 13.7349 302.112L4.47221 294.672L3.31952 293.746C3.06884 293.545 2.80337 293.97 3.05251 294.17H3.0525Z" fill="white"/>
<path d="M445.036 329.889H22.3148C22.2347 329.889 22.1554 329.874 22.0814 329.843C22.0074 329.813 21.9401 329.768 21.8834 329.711C21.8267 329.655 21.7818 329.588 21.7511 329.514C21.7204 329.44 21.7046 329.361 21.7046 329.281C21.7046 329.2 21.7204 329.121 21.7511 329.047C21.7818 328.973 21.8267 328.906 21.8834 328.85C21.9401 328.793 22.0074 328.748 22.0814 328.718C22.1554 328.687 22.2347 328.672 22.3148 328.672H445.036C445.197 328.672 445.352 328.736 445.466 328.85C445.58 328.964 445.644 329.119 445.644 329.281C445.644 329.442 445.58 329.597 445.466 329.711C445.352 329.825 445.197 329.889 445.036 329.889Z" fill="#14142A"/>
<path d="M433.931 268.934H405.312C405.312 269.273 405.177 269.598 404.938 269.837C404.698 270.077 404.373 270.212 404.034 270.212H375.941C375.545 270.511 375.183 270.853 374.863 271.234C373.903 272.379 373.378 273.827 373.381 275.321V276.343C373.382 278.037 374.055 279.661 375.253 280.859C376.45 282.057 378.075 282.73 379.768 282.73H433.931C435.625 282.729 437.248 282.056 438.446 280.858C439.643 279.661 440.317 278.037 440.318 276.343V275.321C440.316 273.628 439.642 272.005 438.445 270.808C437.248 269.61 435.624 268.937 433.931 268.934V268.934Z" fill="#14142A"/>
<path d="M410.424 282.477H403.781V329.486H410.424V282.477Z" fill="#14142A"/>
<path d="M429.33 329.252C429.33 329.97 419.264 329.53 406.847 329.53C394.431 329.53 384.365 329.97 384.365 329.252C384.365 328.535 394.431 322.843 406.847 322.843C419.264 322.843 429.33 328.535 429.33 329.252Z" fill="#14142A"/>
<path d="M432.679 270.406L431.565 263.436C431.424 262.558 430.94 261.771 430.22 261.249C429.499 260.727 428.601 260.512 427.723 260.652L416.231 262.486L396.549 265.628L390.146 266.65H404.034C404.373 266.65 404.698 266.785 404.937 267.025C405.177 267.264 405.311 267.589 405.312 267.928V268.934C405.311 269.273 405.177 269.598 404.937 269.837C404.698 270.077 404.373 270.212 404.034 270.212H368.691C368.197 270.442 367.77 270.794 367.449 271.234C367.177 271.591 366.981 272 366.872 272.436C366.763 272.871 366.744 273.325 366.815 273.768L367.132 275.751L367.515 278.157L367.929 280.743C368.07 281.619 368.552 282.404 369.271 282.925C369.989 283.446 370.885 283.661 371.761 283.522L380.892 282.066L407.228 277.861L429.894 274.243C430.771 274.1 431.555 273.617 432.077 272.898C432.599 272.179 432.815 271.284 432.679 270.406Z" fill="#2934D0"/>
<path d="M380.193 271.234C379.857 270.788 379.412 270.436 378.9 270.212H369.13C368.616 270.434 368.169 270.786 367.832 271.234C367.378 271.816 367.131 272.534 367.132 273.273V312.213C367.134 313.101 367.487 313.951 368.114 314.579C368.742 315.206 369.592 315.559 370.479 315.56H377.546C378.433 315.559 379.284 315.206 379.911 314.579C380.538 313.951 380.891 313.101 380.893 312.213V273.273C380.893 272.534 380.647 271.816 380.193 271.234V271.234Z" fill="#2934D0"/>
<path d="M401.459 204.91L401.393 204.823L397.008 199.422C396.775 199.133 396.493 198.885 396.176 198.692C396.007 198.578 395.825 198.485 395.634 198.416C395.354 198.304 395.06 198.231 394.76 198.201C394.56 198.18 394.358 198.176 394.157 198.191C394.153 198.191 394.15 198.193 394.147 198.196C393.47 198.246 392.824 198.503 392.297 198.932L383.299 206.228L371.736 215.61L354.481 229.61L353.224 230.632H375.057L376.319 229.61L380.494 226.223L380.79 225.988L400.953 209.631L400.968 209.621C401.383 209.287 401.711 208.858 401.924 208.369C402.064 208.05 402.154 207.71 402.19 207.363C402.236 206.926 402.195 206.484 402.07 206.063C401.945 205.642 401.737 205.25 401.459 204.91Z" fill="#2934D0"/>
<path d="M401.392 204.823C401.11 203.446 400.485 202.163 399.573 201.093C398.665 200.015 397.495 199.188 396.175 198.692C395.971 198.615 395.772 198.543 395.567 198.487C395.106 198.35 394.634 198.251 394.157 198.191C394.153 198.191 394.149 198.193 394.147 198.196C391.997 197.948 389.835 198.545 388.117 199.862L372.553 211.757C372.223 212.053 371.955 212.412 371.767 212.813C371.578 213.214 371.472 213.649 371.455 214.092C371.431 214.613 371.527 215.132 371.736 215.61C371.787 215.717 371.843 215.824 371.904 215.927C372.024 216.134 372.168 216.326 372.334 216.499L374.827 219.299L380.627 225.804L380.79 225.988L381.163 226.412C381.46 226.737 381.818 227.001 382.217 227.187C382.616 227.374 383.048 227.48 383.488 227.5C383.928 227.519 384.368 227.452 384.781 227.301C385.195 227.15 385.575 226.919 385.9 226.621L399.323 212.202C400.02 211.453 400.573 210.581 400.953 209.631C401.566 208.106 401.719 206.435 401.392 204.823Z" fill="#14142A"/>
<path d="M407.327 186.321C421.471 186.321 432.937 174.854 432.937 160.71C432.937 146.565 421.471 135.099 407.327 135.099C393.182 135.099 381.716 146.565 381.716 160.71C381.716 174.854 393.182 186.321 407.327 186.321Z" fill="#2934D0"/>
<path d="M416.931 266.88L416.231 262.486L415.817 259.906C415.676 259.029 415.193 258.243 414.474 257.722C413.754 257.201 412.857 256.987 411.98 257.126L393.366 260.095L388.317 260.902L387.295 261.066V266.651H404.034C404.373 266.651 404.698 266.785 404.938 267.025C405.177 267.264 405.312 267.589 405.312 267.928V268.935C405.312 269.273 405.177 269.598 404.938 269.838C404.698 270.077 404.373 270.212 404.034 270.212H351.062C351.062 270.222 351.067 270.232 351.067 270.243L351.384 272.225L352.181 277.212C352.322 278.088 352.805 278.873 353.523 279.394C354.241 279.915 355.137 280.13 356.014 279.992L365.145 278.536L367.132 278.219L367.516 278.158L380.893 276.022L389.993 274.565L404.433 272.261L404.648 272.225L414.147 270.713C415.023 270.572 415.809 270.09 416.331 269.372C416.853 268.654 417.069 267.758 416.931 266.88V266.88Z" fill="#2934D0"/>
<path d="M442.183 248.087C442.183 268.965 440.062 281.453 407.361 277.876C407.315 277.871 407.274 277.866 407.228 277.861C401.395 277.285 395.627 276.182 389.993 274.565C387.065 273.71 384.22 272.595 381.49 271.234C380.847 270.907 380.228 270.564 379.62 270.212H404.034C404.373 270.212 404.698 270.077 404.937 269.838C405.177 269.598 405.312 269.273 405.312 268.934V267.928C405.312 267.589 405.177 267.264 404.937 267.025C404.698 266.785 404.373 266.651 404.034 266.65H387.295V234.378C387.294 233.385 386.899 232.433 386.196 231.731C385.494 231.029 384.543 230.634 383.55 230.632H369.932C370.05 230.295 370.167 229.953 370.295 229.61C371.572 226.075 373.087 222.63 374.827 219.299C377.212 214.673 380.05 210.294 383.299 206.228C385.562 203.395 388.102 200.795 390.882 198.467C396.007 194.236 401.587 191.62 407.248 191.62C428.126 191.62 442.183 227.209 442.183 248.087Z" fill="#14142A"/>
<path d="M407.865 170.202L407.891 169.245C406.111 169.196 404.541 169.084 403.362 168.222C403.027 167.964 402.752 167.637 402.556 167.263C402.359 166.889 402.245 166.477 402.222 166.055C402.201 165.798 402.24 165.538 402.336 165.298C402.432 165.058 402.582 164.843 402.774 164.67C403.557 164.009 404.817 164.223 405.735 164.644L406.527 165.007L405.008 153.91L404.06 154.04L405.352 163.479C404.823 163.283 404.254 163.223 403.695 163.303C403.137 163.383 402.608 163.602 402.156 163.939C401.852 164.205 401.613 164.537 401.459 164.91C401.305 165.283 401.238 165.686 401.266 166.089C401.294 166.656 401.445 167.21 401.71 167.712C401.974 168.214 402.345 168.652 402.797 168.995C404.313 170.103 406.282 170.158 407.865 170.202Z" fill="#14142A"/>
<path d="M399.371 154.854H394.216V155.811H399.371V154.854Z" fill="#14142A"/>
<path d="M415.641 154.854H410.486V155.811H415.641V154.854Z" fill="#14142A"/>
<path d="M427.767 153.673C425.775 150.675 422.27 149.404 418.814 149.095C414.924 148.747 411.165 149.497 407.367 150.226C403.187 151.028 398.763 151.778 394.551 150.764C392.688 150.333 390.947 149.485 389.459 148.283C387.972 147.081 386.776 145.557 385.963 143.826C384.421 140.449 384.089 136.644 385.023 133.051C386.01 129.229 388.459 125.866 391.429 123.326C397.491 118.143 405.693 115.813 413.583 116.032C421.443 116.235 429.039 118.906 435.296 123.667C441.564 128.6 445.974 135.511 447.807 143.273C449.725 150.972 449.1 159.084 446.027 166.398C444.301 170.403 441.804 174.014 439.877 177.918C438.083 181.553 436.702 185.779 437.818 189.834C438.797 193.392 441.673 196.552 445.283 197.518C446.925 197.949 448.663 197.835 450.235 197.193C451.807 196.552 453.128 195.417 454 193.96C455.805 191.114 455.848 187.387 453.138 185.089C452.455 184.5 451.659 184.057 450.799 183.785C449.939 183.513 449.033 183.419 448.135 183.509C447.238 183.598 446.368 183.87 445.579 184.306C444.789 184.742 444.097 185.334 443.544 186.047C442.444 187.474 441.952 189.278 442.174 191.066C442.308 191.97 440.925 192.36 440.79 191.448C440.467 189.557 440.825 187.612 441.802 185.961C442.778 184.309 444.309 183.058 446.122 182.431C447.935 181.803 449.912 181.839 451.701 182.533C453.489 183.226 454.974 184.533 455.889 186.219C457.523 189.291 456.641 192.996 454.567 195.622C453.497 197.021 452.047 198.082 450.389 198.678C448.732 199.274 446.938 199.38 445.222 198.983C441.447 198.111 438.358 195.11 436.905 191.584C435.288 187.658 436.029 183.277 437.606 179.467C439.31 175.35 441.84 171.656 443.841 167.688C445.653 164.102 446.806 160.22 447.245 156.226C448.124 148.206 446.304 140.122 442.073 133.253C437.76 126.49 431.177 121.487 423.506 119.142C415.891 116.695 407.671 116.913 400.196 119.758C392.901 122.633 385.857 128.896 385.942 137.309C385.978 140.902 387.312 144.567 390.064 146.964C393.354 149.828 397.934 150.073 402.069 149.626C406.231 149.176 410.272 147.961 414.451 147.651C418.086 147.381 422.008 147.662 425.254 149.468C426.765 150.311 428.052 151.505 429.006 152.949C429.519 153.72 428.276 154.44 427.767 153.673V153.673Z" fill="#14142A"/>
<path d="M422.552 212.232L420.523 210.822L416.747 208.201C416.017 207.696 415.116 207.501 414.243 207.659C413.369 207.817 412.594 208.315 412.087 209.044L399.778 226.759L388.317 243.253L387.295 244.725V266.65H387.387C388.183 266.571 388.925 266.209 389.477 265.629C389.595 265.507 389.703 265.375 389.799 265.235L393.365 260.095L402.179 247.407L411.315 234.265L412.184 233.013L423.385 216.892C423.446 216.807 423.502 216.718 423.553 216.627C423.604 216.539 423.65 216.449 423.691 216.356C424.012 215.644 424.074 214.841 423.866 214.088C423.658 213.335 423.193 212.679 422.552 212.232V212.232Z" fill="#2934D0"/>
<path d="M422.588 205.222C422.226 204.985 421.847 204.776 421.453 204.598C419.708 203.798 417.74 203.624 415.88 204.104C414.021 204.584 412.384 205.69 411.244 207.235L399.615 223.003C399.381 223.379 399.224 223.797 399.154 224.234C399.083 224.67 399.101 225.116 399.204 225.546C399.308 225.976 399.496 226.381 399.758 226.738C400.019 227.094 400.349 227.395 400.728 227.623L411.316 234.265L411.448 234.347L411.98 234.679C412.74 235.138 413.651 235.278 414.514 235.067C415.377 234.857 416.121 234.313 416.584 233.555L424.795 217.255L424.933 216.984L424.938 216.979L425.444 215.962C426.366 214.133 426.585 212.029 426.059 210.049C425.532 208.069 424.297 206.351 422.588 205.222Z" fill="#14142A"/>
<path d="M351.384 270.212V308.683C351.386 309.57 351.739 310.42 352.366 311.048C352.993 311.675 353.844 312.028 354.731 312.03H361.798C362.685 312.028 363.536 311.675 364.163 311.048C364.79 310.42 365.143 309.57 365.145 308.683V270.212H351.384Z" fill="#2934D0"/>
<path d="M404.034 265.629H388.317V234.378C388.316 233.114 387.813 231.902 386.919 231.008C386.026 230.114 384.814 229.612 383.55 229.61H325.264C323.999 229.611 322.786 230.113 321.891 231.007C320.996 231.901 320.493 233.113 320.491 234.378V266.466C320.493 267.731 320.996 268.944 321.891 269.837C322.786 270.731 323.999 271.234 325.264 271.234H404.034C404.116 271.234 404.193 271.229 404.269 271.224C404.341 271.218 404.413 271.203 404.484 271.193C405.005 271.087 405.474 270.805 405.811 270.393C406.149 269.982 406.333 269.466 406.334 268.934V267.928C406.334 267.318 406.092 266.733 405.66 266.302C405.229 265.871 404.644 265.629 404.034 265.629ZM404.034 270.212H325.264C324.27 270.212 323.317 269.817 322.614 269.115C321.911 268.413 321.515 267.46 321.513 266.466V234.378C321.515 233.384 321.911 232.432 322.614 231.729C323.317 231.027 324.27 230.633 325.264 230.632H383.55C384.543 230.634 385.495 231.029 386.197 231.731C386.899 232.433 387.294 233.385 387.295 234.378V266.65H404.034C404.373 266.651 404.698 266.785 404.938 267.025C405.177 267.264 405.312 267.589 405.312 267.928V268.934C405.312 269.273 405.177 269.598 404.938 269.838C404.698 270.077 404.373 270.212 404.034 270.212V270.212Z" fill="#14142A"/>
<path d="M354.404 254.352C356.575 254.352 358.334 252.593 358.334 250.423C358.334 248.252 356.575 246.493 354.404 246.493C352.234 246.493 350.475 248.252 350.475 250.423C350.475 252.593 352.234 254.352 354.404 254.352Z" fill="#2934D0"/>
<path d="M62.3363 184.633C77.4394 184.633 89.6829 172.39 89.6829 157.287C89.6829 142.184 77.4394 129.94 62.3363 129.94C47.2332 129.94 34.9897 142.184 34.9897 157.287C34.9897 172.39 47.2332 184.633 62.3363 184.633Z" fill="#2934D0"/>
<path d="M57.0052 260.161H49.4634C48.5828 260.162 47.7385 260.512 47.1158 261.135C46.4931 261.758 46.1429 262.602 46.1421 263.482V326.337C46.1429 327.217 46.4931 328.061 47.1158 328.684C47.7385 329.307 48.5828 329.657 49.4634 329.658H57.0052C57.8858 329.657 58.7301 329.307 59.3527 328.684C59.9754 328.061 60.3256 327.217 60.3264 326.337V263.482C60.3256 262.602 59.9754 261.758 59.3527 261.135C58.7301 260.512 57.8858 260.162 57.0052 260.161V260.161Z" fill="#14142A"/>
<path d="M72.9422 260.161H65.4004C64.5198 260.162 63.6755 260.512 63.0528 261.135C62.4301 261.758 62.0799 262.602 62.0791 263.482V326.337C62.0799 327.217 62.4301 328.061 63.0528 328.684C63.6755 329.307 64.5198 329.657 65.4004 329.658H72.9422C73.3783 329.658 73.8102 329.572 74.2132 329.405C74.6162 329.238 74.9823 328.994 75.2907 328.685C75.5991 328.377 75.8438 328.011 76.0107 327.608C76.1776 327.205 76.2635 326.773 76.2635 326.337V263.482C76.2635 263.046 76.1776 262.614 76.0107 262.211C75.8438 261.808 75.5991 261.442 75.2907 261.134C74.9823 260.825 74.6162 260.581 74.2132 260.414C73.8102 260.247 73.3783 260.161 72.9422 260.161V260.161Z" fill="#14142A"/>
<path d="M78.4048 198.973C75.7618 195.557 72.1172 193.053 67.9809 191.811C63.8446 190.569 59.4235 190.651 55.3361 192.046C51.2488 193.441 47.6997 196.078 45.1854 199.59C42.6711 203.101 41.3174 207.311 41.3137 211.629V267.294C41.3116 267.464 41.3253 267.633 41.3546 267.8C41.4759 268.652 41.9002 269.431 42.5496 269.995C43.1991 270.559 44.0302 270.87 44.8905 270.871H79.1612C80.1093 270.869 81.0179 270.491 81.6883 269.821C82.3586 269.151 82.7361 268.242 82.738 267.294V211.629C82.7444 207.045 81.2193 202.591 78.4048 198.973V198.973Z" fill="#14142A"/>
<path d="M85.4298 169.375L85.4014 168.353C87.3025 168.301 88.9787 168.181 90.2381 167.261C90.5952 166.985 90.8887 166.636 91.0986 166.237C91.3086 165.838 91.4301 165.398 91.4549 164.947C91.477 164.672 91.4354 164.395 91.3332 164.139C91.2311 163.882 91.0711 163.653 90.8658 163.468C90.0298 162.762 88.6845 162.991 87.704 163.44L86.8584 163.828L88.4799 151.979L89.4924 152.117L88.1131 162.197C89.4455 161.805 90.68 161.974 91.5255 162.688C91.8502 162.971 92.1049 163.326 92.2698 163.724C92.4347 164.122 92.5053 164.553 92.4761 164.983C92.4463 165.588 92.2844 166.18 92.002 166.716C91.7195 167.252 91.3232 167.72 90.8409 168.086C89.2227 169.269 87.1196 169.328 85.4298 169.375Z" fill="#14142A"/>
<path d="M82.6303 152.986H77.1265V154.008H82.6303V152.986Z" fill="#14142A"/>
<path d="M54.3177 199.76C54.0227 199.437 53.6666 199.177 53.2701 198.994C52.8736 198.81 52.4446 198.708 52.0081 198.692L46.0656 198.446L44.4763 198.38C43.5965 198.344 42.7383 198.658 42.0898 199.254C41.4414 199.85 41.0556 200.678 41.017 201.558L40.0769 224.204L38.4163 264.361C38.3824 265.199 38.6663 266.019 39.2111 266.657C39.7558 267.294 40.5214 267.703 41.3544 267.8C41.4362 267.81 41.5128 267.815 41.5946 267.82L46.1422 268.01L49.1314 268.132C49.3708 268.143 49.6106 268.127 49.8467 268.086C50.471 267.975 51.0505 267.687 51.5176 267.258C51.8397 266.963 52.1001 266.607 52.2834 266.211C52.4667 265.814 52.5694 265.385 52.5854 264.949L52.7848 260.161L54.2513 224.746L55.1914 202.146C55.2281 201.266 54.9138 200.408 54.3177 199.76V199.76Z" fill="#2934D0"/>
<path d="M49.9641 194.803C49.329 194.669 48.6816 194.602 48.0325 194.604C45.5264 194.607 43.1237 195.604 41.3516 197.376C39.5795 199.148 38.5826 201.551 38.5796 204.057V221.43C38.581 221.98 38.7185 222.521 38.9797 223.005C39.2409 223.489 39.6178 223.901 40.0768 224.204C40.4511 224.451 40.8719 224.618 41.3133 224.695C41.507 224.732 41.7037 224.751 41.9009 224.751H54.1641C54.1932 224.752 54.2224 224.75 54.2512 224.746C55.1162 224.724 55.9383 224.365 56.5424 223.745C57.1466 223.126 57.4849 222.295 57.4854 221.43V204.057C57.4827 201.886 56.7339 199.782 55.3646 198.097C53.9953 196.413 52.0887 195.25 49.9641 194.803V194.803Z" fill="#14142A"/>
<path d="M115.46 244.28C114.659 243.866 114.029 243.182 113.683 242.349C113.337 241.516 113.297 240.587 113.57 239.728L116.477 230.474L115.629 229.769L93.3147 211.307L78.4046 198.973L76.5907 197.47C75.9124 196.909 75.0389 196.64 74.1621 196.722C73.2854 196.805 72.4772 197.232 71.9154 197.91L67.1071 203.725C66.8283 204.06 66.6185 204.448 66.4897 204.864C66.3608 205.281 66.3155 205.719 66.3563 206.154C66.3972 206.588 66.5233 207.01 66.7275 207.395C66.9318 207.781 67.2101 208.122 67.5465 208.4L82.7378 220.97L84.4648 222.395L115.976 248.465C116.559 248.949 117.29 249.219 118.048 249.231C118.805 249.242 119.544 248.993 120.141 248.526C120.305 248.398 120.456 248.252 120.59 248.092C120.612 248.071 120.632 248.049 120.651 248.026L121.26 247.29L115.46 244.28Z" fill="#2934D0"/>
<path d="M92.2418 207.761L78.7985 196.76C77.8379 195.974 76.7318 195.384 75.5434 195.025C74.3551 194.666 73.1076 194.545 71.8723 194.668C70.637 194.791 69.438 195.156 68.3438 195.743C67.2497 196.329 66.2817 197.125 65.4953 198.086C64.7089 199.047 64.1193 200.153 63.7603 201.341C63.4013 202.529 63.2799 203.777 63.4031 205.012C63.6517 207.507 64.8812 209.801 66.8211 211.389L80.2647 222.39C80.8569 222.875 81.5985 223.141 82.364 223.142C83.1294 223.143 83.8716 222.879 84.465 222.395C84.6419 222.259 84.8014 222.101 84.94 221.925L92.7069 212.437C92.9818 212.104 93.1884 211.72 93.3149 211.307C93.5061 210.676 93.5062 210.003 93.3153 209.372C93.1243 208.741 92.7508 208.18 92.2418 207.761V207.761Z" fill="#14142A"/>
<path d="M55.4803 161.917C54.0563 159.538 52.9419 156.917 53.4708 154.098C53.9432 151.581 55.7545 149.621 58.3591 149.364C59.9276 149.209 61.4887 149.627 63.0207 149.9C64.2764 150.121 65.5526 150.203 66.8263 150.147C69.3892 150.03 71.9016 149.393 74.2104 148.274C76.5539 147.178 78.6354 145.592 80.3149 143.624C81.9945 141.655 83.2331 139.35 83.9476 136.864C85.5018 131.205 84.3479 124.78 80.6568 120.174L81.9378 119.836L80.2699 125.316C80.2373 125.428 80.1798 125.532 80.1015 125.619C80.0232 125.705 79.9263 125.774 79.8179 125.818C79.7096 125.862 79.5926 125.881 79.4759 125.873C79.3592 125.865 79.2457 125.832 79.1439 125.774C76.121 123.864 72.7415 122.588 69.2104 122.023C65.6794 121.459 62.0705 121.617 58.6027 122.49C56.6432 122.982 54.7506 123.71 52.9662 124.658C52.0956 125.12 51.3202 123.798 52.1925 123.334C55.544 121.586 59.2153 120.535 62.9844 120.247C66.7534 119.958 70.5419 120.437 74.1205 121.654C76.1587 122.349 78.1052 123.288 79.9176 124.45L78.7917 124.908L80.4597 119.428C80.4968 119.3 80.5666 119.184 80.662 119.091C80.7575 118.998 80.8755 118.931 81.0044 118.897C81.1334 118.863 81.269 118.863 81.3981 118.896C81.5271 118.93 81.6451 118.997 81.7407 119.09C83.4574 121.268 84.7156 123.771 85.4393 126.447C86.163 129.124 86.3373 131.92 85.9517 134.666C85.5791 137.372 84.6386 139.97 83.1919 142.287C81.7452 144.605 79.825 146.59 77.5572 148.114C75.2916 149.643 72.7453 150.708 70.0655 151.247C67.3857 151.785 64.6258 151.787 61.9452 151.252C60.4451 150.964 58.7438 150.551 57.2719 151.179C56.738 151.437 56.2675 151.809 55.8935 152.269C55.5196 152.729 55.2516 153.265 55.1084 153.84C54.2744 156.667 55.6936 159.351 57.1434 161.701L55.4803 161.917Z" fill="#14142A"/>
<path d="M155.244 218.532L129.966 203.903C129.337 203.539 128.634 203.322 127.909 203.266C127.183 203.21 126.455 203.318 125.777 203.581C125.1 203.845 124.49 204.257 123.992 204.787C123.495 205.318 123.124 205.954 122.905 206.647L115.629 229.769L112.593 239.421C112.25 240.51 112.302 241.685 112.74 242.74C113.178 243.794 113.975 244.66 114.99 245.184L120.59 248.092L138.862 257.57C139.554 257.93 140.321 258.117 141.1 258.117C141.676 258.116 142.246 258.014 142.787 257.816L142.822 257.8C143.461 257.556 144.041 257.181 144.525 256.699C145.009 256.216 145.387 255.638 145.633 255L157.344 224.47C157.762 223.393 157.779 222.201 157.394 221.112C157.009 220.023 156.246 219.108 155.244 218.532V218.532ZM156.389 224.107L144.677 254.637C144.482 255.141 144.184 255.597 143.801 255.978C143.418 256.358 142.959 256.653 142.454 256.845L142.429 256.855C141.928 257.04 141.394 257.119 140.861 257.086C140.328 257.054 139.807 256.911 139.332 256.666L121.259 247.29L115.46 244.28C114.659 243.866 114.029 243.182 113.683 242.349C113.337 241.516 113.297 240.587 113.57 239.727L116.477 230.474L123.876 206.954C124.049 206.407 124.344 205.906 124.736 205.488C125.129 205.07 125.61 204.745 126.145 204.537C126.68 204.329 127.254 204.244 127.826 204.287C128.398 204.331 128.953 204.501 129.45 204.787L154.728 219.416C155.52 219.87 156.123 220.593 156.428 221.454C156.732 222.314 156.719 223.256 156.389 224.107V224.107Z" fill="#14142A"/>
<path d="M146.763 228.314C146.507 228.314 146.255 228.25 146.03 228.127L129.169 218.93C128.813 218.734 128.549 218.406 128.436 218.016C128.322 217.627 128.367 217.208 128.561 216.852C128.755 216.496 129.083 216.231 129.472 216.116C129.861 216.001 130.28 216.045 130.637 216.238L147.498 225.435C147.798 225.599 148.034 225.857 148.17 226.169C148.306 226.482 148.334 226.831 148.25 227.161C148.165 227.491 147.973 227.783 147.704 227.992C147.435 228.201 147.104 228.315 146.763 228.314H146.763Z" fill="#2934D0"/>
<path d="M143.697 234.957C143.441 234.957 143.189 234.892 142.965 234.77L126.103 225.572C125.747 225.377 125.484 225.048 125.37 224.659C125.256 224.27 125.301 223.851 125.495 223.495C125.69 223.139 126.017 222.874 126.406 222.759C126.795 222.644 127.214 222.687 127.571 222.881L144.433 232.078C144.732 232.241 144.968 232.499 145.104 232.812C145.24 233.124 145.268 233.473 145.184 233.803C145.099 234.133 144.907 234.426 144.638 234.635C144.369 234.844 144.038 234.957 143.697 234.957H143.697Z" fill="#2934D0"/>
<path d="M141.143 242.11C140.886 242.11 140.635 242.046 140.41 241.923L123.548 232.726C123.192 232.53 122.929 232.202 122.815 231.812C122.701 231.423 122.746 231.004 122.941 230.648C123.135 230.292 123.462 230.028 123.851 229.912C124.24 229.797 124.659 229.841 125.016 230.034L141.878 239.231C142.177 239.395 142.413 239.653 142.549 239.965C142.685 240.278 142.713 240.627 142.629 240.957C142.545 241.287 142.353 241.58 142.084 241.789C141.814 241.997 141.483 242.111 141.142 242.11H141.143Z" fill="#2934D0"/>
<path d="M319.457 97.3613H248.571C247.552 97.3601 246.575 96.9549 245.854 96.2344C245.134 95.5139 244.729 94.537 244.728 93.5181V3.84321C244.729 2.82428 245.134 1.84742 245.854 1.12693C246.575 0.406436 247.552 0.001159 248.571 0H319.457C320.476 0.00116574 321.452 0.406446 322.173 1.12693C322.893 1.84742 323.299 2.82428 323.3 3.84321V93.5181C323.299 94.537 322.893 95.5139 322.173 96.2344C321.452 96.9548 320.476 97.3601 319.457 97.3613V97.3613ZM248.571 0.854048C247.778 0.854937 247.018 1.17015 246.458 1.73054C245.898 2.29092 245.582 3.0507 245.582 3.84321V93.5181C245.582 94.3106 245.898 95.0704 246.458 95.6308C247.018 96.1911 247.778 96.5064 248.571 96.5072H319.457C320.249 96.5064 321.009 96.1911 321.569 95.6308C322.13 95.0704 322.445 94.3106 322.446 93.5181V3.84321C322.445 3.0507 322.13 2.29092 321.569 1.73054C321.009 1.17015 320.249 0.854938 319.457 0.854048H248.571Z" fill="#14142A"/>
<path d="M278.117 43.1044H262.513C262.004 43.1039 261.515 42.9012 261.155 42.541C260.795 42.1807 260.592 41.6923 260.592 41.1828V22.7697C260.592 22.2603 260.795 21.7718 261.155 21.4116C261.515 21.0513 262.004 20.8487 262.513 20.8481H278.117C278.626 20.8487 279.115 21.0513 279.475 21.4116C279.835 21.7718 280.038 22.2603 280.038 22.7697V41.1828C280.038 41.6923 279.835 42.1807 279.475 42.541C279.115 42.9012 278.626 43.1039 278.117 43.1044V43.1044Z" fill="#2934D0"/>
<path d="M308.436 51.645H292.832C292.323 51.6444 291.834 51.4418 291.474 51.0815C291.114 50.7213 290.911 50.2328 290.911 49.7234V31.3103C290.911 30.8008 291.114 30.3124 291.474 29.9521C291.834 29.5919 292.323 29.3892 292.832 29.3887H308.436C308.945 29.3892 309.434 29.5919 309.794 29.9521C310.154 30.3124 310.357 30.8008 310.357 31.3103V49.7234C310.357 50.2328 310.154 50.7213 309.794 51.0815C309.434 51.4418 308.945 51.6444 308.436 51.645Z" fill="#D9DBE9"/>
<path d="M284.095 77.6933H268.492C267.982 77.6927 267.494 77.4901 267.134 77.1299C266.774 76.7696 266.571 76.2812 266.57 75.7717V57.3586C266.571 56.8492 266.774 56.3607 267.134 56.0005C267.494 55.6402 267.982 55.4376 268.492 55.437H284.095C284.605 55.4376 285.093 55.6402 285.454 56.0005C285.814 56.3607 286.016 56.8492 286.017 57.3586V75.7717C286.016 76.2812 285.814 76.7696 285.454 77.1299C285.093 77.4901 284.605 77.6927 284.095 77.6933Z" fill="#D32E2A"/>
<path d="M226.992 73.1231C226.697 72.4233 226.203 71.8252 225.572 71.4029C224.941 70.9807 224.2 70.7526 223.44 70.7471H152.554C151.535 70.7476 150.558 71.1526 149.837 71.8731C149.117 72.5936 148.712 73.5706 148.711 74.5895V164.264C148.712 165.283 149.117 166.26 149.837 166.981C150.558 167.701 151.535 168.106 152.554 168.107H223.44C224.459 168.105 225.436 167.7 226.156 166.98C226.876 166.26 227.282 165.283 227.283 164.264V74.5895C227.285 74.0862 227.186 73.5876 226.992 73.1231V73.1231ZM226.43 164.264C226.429 165.057 226.113 165.817 225.553 166.377C224.993 166.937 224.233 167.253 223.44 167.254H152.554C151.761 167.253 151.001 166.938 150.44 166.378C149.88 165.817 149.565 165.057 149.565 164.264V74.5895C149.566 73.7971 149.881 73.0374 150.441 72.477C151.002 71.9167 151.761 71.6014 152.554 71.6004H223.44C224.037 71.6026 224.62 71.7827 225.114 72.1176C225.609 72.4526 225.992 72.9271 226.215 73.4808C226.259 73.5911 226.296 73.7037 226.327 73.818C226.395 74.0696 226.43 74.329 226.43 74.5895V164.264Z" fill="#14142A"/>
<path d="M212.196 91.9194H190.845C190.392 91.9194 189.958 91.7394 189.638 91.4191C189.317 91.0987 189.137 90.6643 189.137 90.2113C189.137 89.7583 189.317 89.3238 189.638 89.0035C189.958 88.6831 190.392 88.5032 190.845 88.5032H212.196C212.649 88.5032 213.084 88.6831 213.404 89.0035C213.725 89.3238 213.905 89.7583 213.905 90.2113C213.905 90.6643 213.725 91.0987 213.404 91.4191C213.084 91.7394 212.649 91.9194 212.196 91.9194V91.9194Z" fill="#14142A"/>
<path d="M212.196 100.887H190.845C190.392 100.887 189.958 100.707 189.638 100.387C189.317 100.066 189.137 99.6318 189.137 99.1788C189.137 98.7258 189.317 98.2913 189.638 97.971C189.958 97.6507 190.392 97.4707 190.845 97.4707H212.196C212.649 97.4707 213.084 97.6507 213.404 97.971C213.725 98.2913 213.905 98.7258 213.905 99.1788C213.905 99.6318 213.725 100.066 213.404 100.387C213.084 100.707 212.649 100.887 212.196 100.887V100.887Z" fill="#14142A"/>
<path d="M179.89 105.993H164.286C163.777 105.993 163.288 105.79 162.928 105.43C162.568 105.069 162.365 104.581 162.365 104.072V85.6584C162.365 85.149 162.568 84.6605 162.928 84.3003C163.288 83.94 163.777 83.7374 164.286 83.7368H179.89C180.399 83.7374 180.888 83.94 181.248 84.3003C181.608 84.6605 181.811 85.149 181.811 85.6584V104.072C181.811 104.581 181.608 105.069 181.248 105.43C180.888 105.79 180.399 105.993 179.89 105.993V105.993Z" fill="#2934D0"/>
<path d="M212.048 119.249H163.795C163.57 119.249 163.348 119.205 163.14 119.12C162.932 119.034 162.744 118.908 162.585 118.75C162.426 118.591 162.3 118.403 162.214 118.195C162.128 117.988 162.083 117.765 162.083 117.541C162.083 117.316 162.128 117.094 162.214 116.887C162.3 116.679 162.426 116.491 162.585 116.332C162.744 116.173 162.932 116.048 163.14 115.962C163.348 115.876 163.57 115.832 163.795 115.833H212.048C212.501 115.834 212.934 116.014 213.254 116.334C213.574 116.654 213.753 117.088 213.753 117.541C213.753 117.993 213.574 118.427 213.254 118.748C212.934 119.068 212.501 119.248 212.048 119.249V119.249Z" fill="#D9DBE9"/>
<path d="M212.048 128.216H163.795C163.57 128.217 163.348 128.173 163.14 128.087C162.932 128.002 162.744 127.876 162.585 127.717C162.426 127.559 162.3 127.37 162.214 127.163C162.128 126.955 162.083 126.733 162.083 126.508C162.083 126.284 162.128 126.061 162.214 125.854C162.3 125.647 162.426 125.458 162.585 125.3C162.744 125.141 162.932 125.015 163.14 124.929C163.348 124.844 163.57 124.8 163.795 124.8H212.048C212.501 124.8 212.936 124.98 213.256 125.301C213.576 125.621 213.756 126.055 213.756 126.508C213.756 126.961 213.576 127.396 213.256 127.716C212.936 128.037 212.501 128.216 212.048 128.216Z" fill="#D9DBE9"/>
<path d="M212.048 137.184H163.795C163.57 137.184 163.348 137.141 163.14 137.055C162.932 136.969 162.744 136.843 162.585 136.685C162.426 136.526 162.3 136.338 162.214 136.13C162.128 135.923 162.083 135.7 162.083 135.476C162.083 135.251 162.128 135.029 162.214 134.822C162.3 134.614 162.426 134.426 162.585 134.267C162.744 134.108 162.932 133.983 163.14 133.897C163.348 133.811 163.57 133.767 163.795 133.768H212.048C212.501 133.768 212.936 133.948 213.256 134.268C213.576 134.588 213.756 135.023 213.756 135.476C213.756 135.929 213.576 136.363 213.256 136.684C212.936 137.004 212.501 137.184 212.048 137.184V137.184Z" fill="#D9DBE9"/>
<path d="M212.048 146.151H163.795C163.57 146.152 163.348 146.108 163.14 146.022C162.932 145.936 162.744 145.811 162.585 145.652C162.426 145.493 162.3 145.305 162.214 145.098C162.128 144.89 162.083 144.668 162.083 144.443C162.083 144.219 162.128 143.996 162.214 143.789C162.3 143.581 162.426 143.393 162.585 143.234C162.744 143.076 162.932 142.95 163.14 142.864C163.348 142.779 163.57 142.735 163.795 142.735H212.048C212.501 142.735 212.936 142.915 213.256 143.235C213.576 143.556 213.756 143.99 213.756 144.443C213.756 144.896 213.576 145.331 213.256 145.651C212.936 145.971 212.501 146.151 212.048 146.151Z" fill="#D9DBE9"/>
<path d="M212.048 155.119H163.795C163.57 155.119 163.348 155.075 163.14 154.99C162.932 154.904 162.744 154.778 162.585 154.62C162.426 154.461 162.3 154.273 162.214 154.065C162.128 153.858 162.083 153.635 162.083 153.411C162.083 153.186 162.128 152.964 162.214 152.756C162.3 152.549 162.426 152.361 162.585 152.202C162.744 152.043 162.932 151.917 163.14 151.832C163.348 151.746 163.57 151.702 163.795 151.703H212.048C212.501 151.703 212.934 151.884 213.254 152.204C213.574 152.524 213.753 152.958 213.753 153.411C213.753 153.863 213.574 154.297 213.254 154.617C212.934 154.938 212.501 155.118 212.048 155.119Z" fill="#D9DBE9"/>
<path d="M280.722 107.155L240.312 145.628L240.901 146.247L281.311 107.773L280.722 107.155Z" fill="#D9DBE9"/>
<path d="M239.935 146.575L245.064 146.515L245.054 145.66L240.843 145.711L241.101 141.507L240.247 141.456L239.935 146.575Z" fill="#D9DBE9"/>
<path d="M281.687 106.824L281.375 111.944L280.522 111.893L280.779 107.69L276.568 107.74L276.559 106.886L281.687 106.824Z" fill="#D9DBE9"/>
<path d="M260.812 131.398C263.406 131.398 265.509 129.295 265.509 126.701C265.509 124.106 263.406 122.003 260.812 122.003C258.217 122.003 256.114 124.106 256.114 126.701C256.114 129.295 258.217 131.398 260.812 131.398Z" fill="#D9DBE9"/>
<path d="M226.56 16.2024L186.149 54.6755L186.738 55.2942L227.149 16.8211L226.56 16.2024Z" fill="#D9DBE9"/>
<path d="M185.772 55.6231L190.901 55.5628L190.892 54.7079L186.68 54.7585L186.938 50.5553L186.085 50.5037L185.772 55.6231Z" fill="#D9DBE9"/>
<path d="M227.525 15.8723L227.213 20.9922L226.36 20.9411L226.617 16.7374L222.406 16.788L222.396 15.9336L227.525 15.8723Z" fill="#D9DBE9"/>
<path d="M206.649 40.4455C209.243 40.4455 211.346 38.3425 211.346 35.7483C211.346 33.1541 209.243 31.051 206.649 31.051C204.055 31.051 201.952 33.1541 201.952 35.7483C201.952 38.3425 204.055 40.4455 206.649 40.4455Z" fill="#D9DBE9"/>
<path d="M388.302 266.17H387.28V270.769H388.302V266.17Z" fill="#14142A"/>
</g>
<defs>
<clipPath id="clip0_94_5579">
<rect width="456.737" height="329.889" fill="white"/>
</clipPath>
</defs>
</svg>
