<svg width="211" height="103" viewBox="0 0 211 103" fill="none" xmlns="http://www.w3.org/2000/svg">
<rect width="211" height="103" rx="8" fill="#F5F5F5"/>
<path fill-rule="evenodd" clip-rule="evenodd" d="M87.77 43.133L76.259 50.053H73.076L84.303 43.295L22.541 20.353L22.536 80.399L27.873 77.18L30.714 77.289L21.001 83.148L21 18L87.77 43.133Z" fill="#00249C"/>
<path fill-rule="evenodd" clip-rule="evenodd" d="M29.5183 64.7784H32.9863V51.3074H29.5183V64.7784Z" fill="#00249C"/>
<path fill-rule="evenodd" clip-rule="evenodd" d="M40.9974 61.6134C42.0164 61.6134 42.8084 61.2794 43.3724 60.6104C43.9444 59.9334 44.2304 59.0794 44.2304 58.0464C44.2304 56.9904 43.9444 56.1324 43.3724 55.4694C42.8004 54.8084 42.0084 54.4784 40.9974 54.4784C39.9644 54.4784 39.1394 54.8124 38.5214 55.4814C37.9124 56.1424 37.6074 57.0014 37.6074 58.0564C37.6074 59.0974 37.9124 59.9484 38.5214 60.6104C39.1394 61.2794 39.9644 61.6134 40.9974 61.6134ZM44.2084 46.7964H47.6434V64.7774H44.1974V62.9184C43.2304 64.1524 41.7934 64.7684 39.8834 64.7684C38.1804 64.7684 36.7944 64.1484 35.7234 62.9074C34.6534 61.6744 34.1174 60.0504 34.1174 58.0344C34.1174 56.0204 34.6534 54.3964 35.7234 53.1624C36.7944 51.9284 38.1844 51.3114 39.8934 51.3114C41.8044 51.3114 43.2424 51.9284 44.2084 53.1624V46.7964Z" fill="#00249C"/>
<path fill-rule="evenodd" clip-rule="evenodd" d="M55.522 54.3332C54.579 54.3332 53.828 54.6152 53.27 55.1812C52.719 55.7452 52.426 56.4142 52.389 57.1872H58.555C58.541 56.4142 58.268 55.7452 57.742 55.1812C57.206 54.6152 56.466 54.3332 55.522 54.3332ZM56.158 64.7692L56.113 64.7912C53.854 64.7912 52.084 64.1862 50.805 62.9742C49.52 61.7552 48.877 60.1162 48.877 58.0572C48.877 56.9792 49.074 55.9942 49.468 55.1032C49.862 54.2182 50.382 53.5082 51.029 52.9732C51.683 52.4302 52.393 52.0222 53.159 51.7462C53.939 51.4642 54.731 51.3232 55.534 51.3232C57.503 51.3232 59.097 51.9362 60.317 53.1622C61.536 54.3962 62.145 56.1202 62.145 58.3362C62.145 58.7592 62.123 59.1392 62.078 59.4742H52.412C52.597 60.1562 53.021 60.7362 53.682 61.2122C54.336 61.6872 55.217 61.9262 56.325 61.9262C56.905 61.9262 57.465 61.8252 58.008 61.6252C58.551 61.4242 58.941 61.2342 59.179 61.0572L59.547 60.7552L61.398 62.5172C61.353 62.5682 61.287 62.6462 61.197 62.7512C61.13 62.8252 60.922 63.0072 60.573 63.2972C60.252 63.5652 59.908 63.7992 59.536 64.0002C59.164 64.2002 58.673 64.3792 58.064 64.5352C57.455 64.6902 56.819 64.7692 56.158 64.7692Z" fill="#00249C"/>
<path fill-rule="evenodd" clip-rule="evenodd" d="M69.2095 62.2608L69.1975 62.2718C70.0165 62.2718 70.7075 62.0738 71.2725 61.6808C71.8295 61.2938 72.1075 60.7298 72.1075 59.9868V59.1268C71.2905 58.8368 70.4215 58.6928 69.4995 58.6928C68.7265 58.6928 68.0795 58.8488 67.5605 59.1608C67.0395 59.4738 66.7785 59.9078 66.7785 60.4648C66.7785 61.0158 67.0095 61.4538 67.4705 61.7818C67.9235 62.1008 68.5035 62.2608 69.2095 62.2608ZM72.2205 64.7778L72.1965 63.0408C71.3795 64.1858 70.0535 64.7538 68.2175 64.7468C66.7305 64.7468 65.5445 64.3978 64.6605 63.6978C63.7685 62.9928 63.3225 61.9958 63.3225 60.7108C63.3225 59.4028 63.8505 58.3808 64.9055 57.6448C65.9615 56.9088 67.1985 56.5408 68.6185 56.5408C69.7845 56.5408 70.9445 56.7068 72.0975 57.0428C72.1425 55.1688 71.1755 54.2328 69.1975 54.2328C68.4105 54.2328 67.6045 54.3328 66.7785 54.5328C65.9535 54.7348 65.3075 54.9468 64.8395 55.1688L63.9905 52.6388C65.8425 51.7538 67.7445 51.3118 69.6995 51.3118C71.7065 51.3118 73.1895 51.8028 74.1485 52.7828C75.1075 53.7648 75.5865 55.2548 75.5865 57.2538V64.7778H72.2205Z" fill="#00249C"/>
<path fill-rule="evenodd" clip-rule="evenodd" d="M82.6002 64.8585L82.6662 64.8465C80.3632 64.8465 78.4152 64.2665 76.8252 63.1075L78.0742 60.8445C78.6382 61.2155 79.3492 61.5325 80.2042 61.7925C81.0292 62.0455 81.7972 62.1705 82.5112 62.1705C83.8642 62.1705 84.5402 61.7925 84.5402 61.0335C84.5402 60.6625 84.3502 60.3575 83.9722 60.1205C83.5852 59.8815 83.1172 59.7175 82.5672 59.6295C82.0622 59.5475 81.4552 59.4175 80.7492 59.2395C80.0952 59.0675 79.4822 58.8675 78.9112 58.6365C78.3372 58.4065 77.8702 58.0165 77.5052 57.4655C77.1332 56.9165 76.9482 56.2405 76.9482 55.4375C76.9482 54.1295 77.4382 53.1175 78.4192 52.4045C79.4012 51.6905 80.6382 51.3345 82.1322 51.3345C84.0942 51.3345 85.7592 51.7905 87.1272 52.7055L86.0342 55.0355C84.8002 54.3375 83.5182 53.9875 82.1882 53.9875C80.9242 53.9875 80.2922 54.3745 80.2922 55.1475C80.2922 55.5635 80.5482 55.8765 81.0612 56.0845C81.5752 56.2925 82.2002 56.4595 82.9352 56.5855C83.6712 56.7125 84.4072 56.8795 85.1432 57.0875C85.8782 57.2955 86.5022 57.7085 87.0152 58.3245C87.5292 58.9415 87.7852 59.7445 87.7852 60.7325C87.7852 62.0345 87.3172 63.0485 86.3802 63.7765C85.4512 64.4985 84.1912 64.8585 82.6002 64.8585Z" fill="#00249C"/>
<path fill-rule="evenodd" clip-rule="evenodd" d="M41.3724 81.4825L41.3384 84.6165H29.6084V81.7615L35.6294 76.5995C36.5214 75.8405 37.1164 75.2205 37.4144 74.7375C37.7034 74.2695 37.8494 73.7265 37.8494 73.1095C37.8494 72.3815 37.6334 71.8275 37.2024 71.4485C36.7704 71.0695 36.2214 70.8795 35.5514 70.8795C34.8904 70.8795 34.3324 71.1145 33.8794 71.5825C33.4264 72.0495 33.1024 72.6745 32.9094 73.4555C32.6854 73.4035 31.5184 73.0905 29.4084 72.5185C29.7354 71.1365 30.4604 69.9765 31.5824 69.0405C32.7044 68.1035 34.0094 67.6355 35.4964 67.6355C37.3024 67.6355 38.7594 68.1515 39.8664 69.1845C40.9814 70.2255 41.5394 71.4975 41.5394 72.9985C41.5394 74.1355 41.2644 75.1545 40.7144 76.0535C40.1714 76.9375 39.1684 77.9335 37.7034 79.0415L34.8504 81.4825H41.3724Z" fill="#00249C"/>
<path fill-rule="evenodd" clip-rule="evenodd" d="M42.6865 84.6163H46.2885V67.9033H42.6865V84.6163Z" fill="#00249C"/>
<path fill-rule="evenodd" clip-rule="evenodd" d="M60.6295 71.0246H55.9245V84.6166H52.3015V71.0246H47.5735V67.9036H60.6295V71.0246Z" fill="#00249C"/>
<path fill-rule="evenodd" clip-rule="evenodd" d="M33.3208 48.1227C33.3208 49.2657 32.3948 50.1907 31.2528 50.1907C30.1098 50.1907 29.1838 49.2657 29.1838 48.1227C29.1838 46.9797 30.1098 46.0547 31.2528 46.0547C32.3948 46.0547 33.3208 46.9797 33.3208 48.1227Z" fill="#00249C"/>
<path fill-rule="evenodd" clip-rule="evenodd" d="M111.003 51.2864H112.446V63.6824H120.086V64.9294H111.003V51.2864Z" fill="#00249C"/>
<path fill-rule="evenodd" clip-rule="evenodd" d="M123.527 56.7336C122.856 57.3646 122.477 58.1856 122.385 59.1986H129.656C129.564 58.1856 129.185 57.3646 128.515 56.7336C127.846 56.1036 127.011 55.7886 126.011 55.7886C125.024 55.7886 124.195 56.1036 123.527 56.7336ZM130.962 60.2316H122.385C122.465 61.2966 122.873 62.1586 123.613 62.8146C124.355 63.4696 125.29 63.7986 126.42 63.7986C127.057 63.7986 127.642 63.6856 128.175 63.4576C128.708 63.2296 129.169 62.8956 129.557 62.4536L130.338 63.3496C129.882 63.8956 129.314 64.3116 128.632 64.5976C127.951 64.8826 127.199 65.0266 126.381 65.0266C125.33 65.0266 124.396 64.8026 123.584 64.3536C122.773 63.9066 122.139 63.2856 121.684 62.4936C121.23 61.7006 121.003 60.8036 121.003 59.8036C121.003 58.8026 121.22 57.9066 121.655 57.1146C122.09 56.3216 122.688 55.7046 123.448 55.2616C124.209 54.8206 125.063 54.5996 126.011 54.5996C126.959 54.5996 127.81 54.8206 128.564 55.2616C129.317 55.7046 129.909 56.3186 130.338 57.1046C130.767 57.8906 130.981 58.7906 130.981 59.8036L130.962 60.2316Z" fill="#00249C"/>
<path fill-rule="evenodd" clip-rule="evenodd" d="M139.206 64.3058C138.944 64.5388 138.624 64.7178 138.24 64.8418C137.857 64.9648 137.457 65.0268 137.042 65.0268C136.081 65.0268 135.339 64.7668 134.821 64.2458C134.301 63.7278 134.041 62.9938 134.041 62.0438V55.8468H132.209V54.6778H134.041V52.4358H135.424V54.6778H138.543V55.8468H135.424V61.9668C135.424 62.5778 135.578 63.0418 135.882 63.3608C136.187 63.6788 136.625 63.8368 137.197 63.8368C137.483 63.8368 137.76 63.7918 138.026 63.7018C138.293 63.6108 138.523 63.4808 138.718 63.3118L139.206 64.3058Z" fill="#00249C"/>
<path fill-rule="evenodd" clip-rule="evenodd" d="M142.615 50.6726C142.81 50.8736 142.908 51.1236 142.908 51.4226C142.908 51.5786 142.886 51.7436 142.84 51.9196C142.794 52.0956 142.733 52.2996 142.655 52.5336L141.816 55.2226H140.882L141.563 52.4166C141.343 52.3526 141.168 52.2326 141.037 52.0566C140.907 51.8806 140.842 51.6696 140.842 51.4226C140.842 51.1106 140.94 50.8576 141.135 50.6626C141.329 50.4676 141.576 50.3706 141.875 50.3706C142.174 50.3706 142.421 50.4706 142.615 50.6726Z" fill="#00249C"/>
<path fill-rule="evenodd" clip-rule="evenodd" d="M145.899 64.6661C145.139 64.4261 144.544 64.1231 144.116 63.7601L144.74 62.6691C145.169 63.0061 145.708 63.2821 146.356 63.4961C147.007 63.7111 147.682 63.8181 148.383 63.8181C149.32 63.8181 150.011 63.6721 150.459 63.3801C150.909 63.0871 151.132 62.6751 151.132 62.1431C151.132 61.7661 151.008 61.4701 150.761 61.2561C150.514 61.0411 150.203 60.8791 149.827 60.7681C149.449 60.6571 148.949 60.5501 148.326 60.4461C147.494 60.2901 146.826 60.1311 146.317 59.9691C145.81 59.8071 145.379 59.5301 145.023 59.1411C144.665 58.7511 144.487 58.2111 144.487 57.5221C144.487 56.6651 144.843 55.9641 145.557 55.4181C146.273 54.8721 147.267 54.6001 148.54 54.6001C149.202 54.6001 149.866 54.6871 150.528 54.8621C151.191 55.0381 151.735 55.2691 152.166 55.5551L151.56 56.6651C150.715 56.0811 149.709 55.7881 148.54 55.7881C147.656 55.7881 146.991 55.9441 146.543 56.2561C146.093 56.5681 145.87 56.9781 145.87 57.4841C145.87 57.8741 145.997 58.1861 146.251 58.4201C146.503 58.6531 146.817 58.8261 147.195 58.9371C147.573 59.0471 148.092 59.1601 148.754 59.2771C149.573 59.4341 150.228 59.5891 150.722 59.7441C151.215 59.9001 151.639 60.1671 151.989 60.5441C152.34 60.9211 152.515 61.4401 152.515 62.1031C152.515 62.9991 152.142 63.7111 151.395 64.2361C150.648 64.7631 149.612 65.0261 148.287 65.0261C147.455 65.0261 146.659 64.9061 145.899 64.6661Z" fill="#00249C"/>
<path fill-rule="evenodd" clip-rule="evenodd" d="M111.003 84.6654H112.506V70.4534H111.003V84.6654Z" fill="#00249C"/>
<path fill-rule="evenodd" clip-rule="evenodd" d="M125.469 75.0715C126.261 75.8505 126.657 76.9835 126.657 78.4725V84.6655H125.215V78.6145C125.215 77.5055 124.938 76.6595 124.383 76.0775C123.827 75.4955 123.036 75.2035 122.008 75.2035C120.857 75.2035 119.948 75.5465 119.277 76.2295C118.608 76.9135 118.272 77.8565 118.272 79.0615V84.6655H116.831V73.9855H118.21V75.9555C118.604 75.3055 119.149 74.8015 119.845 74.4425C120.543 74.0845 121.352 73.9045 122.272 73.9045C123.612 73.9045 124.677 74.2935 125.469 75.0715Z" fill="#00249C"/>
<path fill-rule="evenodd" clip-rule="evenodd" d="M139.215 75.0715C140.007 75.8505 140.403 76.9835 140.403 78.4725V84.6655H138.961V78.6145C138.961 77.5055 138.684 76.6595 138.129 76.0775C137.573 75.4955 136.782 75.2035 135.753 75.2035C134.603 75.2035 133.694 75.5465 133.023 76.2295C132.353 76.9135 132.018 77.8565 132.018 79.0615V84.6655H130.577V73.9855H131.956V75.9555C132.35 75.3055 132.895 74.8015 133.591 74.4425C134.289 74.0845 135.098 73.9045 136.018 73.9045C137.358 73.9045 138.423 74.2935 139.215 75.0715Z" fill="#00249C"/>
<path fill-rule="evenodd" clip-rule="evenodd" d="M150.768 82.9698C151.37 82.6238 151.841 82.1338 152.178 81.4978C152.517 80.8618 152.685 80.1378 152.685 79.3248C152.685 78.5138 152.517 77.7888 152.178 77.1528C151.841 76.5168 151.37 76.0258 150.768 75.6808C150.165 75.3358 149.485 75.1628 148.727 75.1628C147.969 75.1628 147.288 75.3358 146.687 75.6808C146.084 76.0258 145.611 76.5168 145.265 77.1528C144.919 77.7888 144.747 78.5138 144.747 79.3248C144.747 80.1378 144.919 80.8618 145.265 81.4978C145.611 82.1338 146.084 82.6238 146.687 82.9698C147.288 83.3148 147.969 83.4878 148.727 83.4878C149.485 83.4878 150.165 83.3148 150.768 82.9698ZM145.946 84.0658C145.121 83.5998 144.47 82.9528 143.997 82.1268C143.523 81.3018 143.287 80.3668 143.287 79.3248C143.287 78.2828 143.523 77.3498 143.997 76.5238C144.47 75.6988 145.121 75.0548 145.946 74.5948C146.77 74.1348 147.699 73.9048 148.727 73.9048C149.755 73.9048 150.683 74.1348 151.509 74.5948C152.334 75.0548 152.98 75.6988 153.449 76.5238C153.914 77.3498 154.148 78.2828 154.148 79.3248C154.148 80.3668 153.914 81.3018 153.449 82.1268C152.98 82.9528 152.334 83.5998 151.509 84.0658C150.683 84.5328 149.755 84.7668 148.727 84.7668C147.699 84.7668 146.77 84.5328 145.946 84.0658Z" fill="#00249C"/>
<path fill-rule="evenodd" clip-rule="evenodd" d="M165.762 73.9856L161.011 84.6656H159.529L154.798 73.9856H156.3L160.3 83.0826L164.34 73.9856H165.762Z" fill="#00249C"/>
<path fill-rule="evenodd" clip-rule="evenodd" d="M172.788 83.0715C173.368 82.6995 173.803 82.1615 174.087 81.4575V79.7115H170.736C168.909 79.7115 167.997 80.3465 167.997 81.6205C167.997 82.2425 168.233 82.7335 168.707 83.0925C169.18 83.4505 169.844 83.6305 170.695 83.6305C171.508 83.6305 172.206 83.4435 172.788 83.0715ZM174.412 74.9495C175.156 75.6465 175.527 76.6795 175.527 78.0465V84.6655H174.148V83.0005C173.823 83.5555 173.347 83.9885 172.717 84.3005C172.087 84.6115 171.339 84.7665 170.473 84.7665C169.282 84.7665 168.334 84.4825 167.631 83.9145C166.926 83.3455 166.575 82.5935 166.575 81.6605C166.575 80.7535 166.901 80.0225 167.559 79.4675C168.216 78.9125 169.262 78.6345 170.695 78.6345H174.087V77.9855C174.087 77.0655 173.83 76.3645 173.315 75.8845C172.802 75.4035 172.049 75.1635 171.061 75.1635C170.386 75.1635 169.735 75.2745 169.112 75.4985C168.49 75.7215 167.956 76.0295 167.508 76.4225L166.859 75.3455C167.4 74.8855 168.05 74.5305 168.809 74.2795C169.566 74.0295 170.365 73.9045 171.204 73.9045C172.598 73.9045 173.667 74.2535 174.412 74.9495Z" fill="#00249C"/>
<path fill-rule="evenodd" clip-rule="evenodd" d="M185.071 84.0159C184.799 84.2589 184.465 84.4459 184.065 84.5749C183.667 84.7029 183.249 84.7669 182.817 84.7669C181.815 84.7669 181.043 84.4959 180.503 83.9539C179.962 83.4139 179.69 82.6489 179.69 81.6609V75.2029H177.782V73.9859H179.69V71.6509H181.131V73.9859H184.38V75.2029H181.131V81.5789C181.131 82.2159 181.291 82.6999 181.608 83.0309C181.926 83.3629 182.383 83.5279 182.978 83.5279C183.276 83.5279 183.564 83.4809 183.842 83.3869C184.119 83.2909 184.359 83.1559 184.562 82.9809L185.071 84.0159Z" fill="#00249C"/>
<path fill-rule="evenodd" clip-rule="evenodd" d="M188.858 76.1281C188.16 76.7841 187.764 77.6401 187.67 78.6951H195.243C195.147 77.6401 194.753 76.7841 194.054 76.1281C193.358 75.4721 192.488 75.1431 191.446 75.1431C190.418 75.1431 189.554 75.4721 188.858 76.1281ZM196.603 79.7721H187.67C187.751 80.8821 188.176 81.7791 188.948 82.4621C189.721 83.1461 190.695 83.4871 191.872 83.4871C192.536 83.4871 193.145 83.3691 193.7 83.1321C194.255 82.8961 194.736 82.5471 195.14 82.0861L195.953 83.0211C195.479 83.5891 194.887 84.0231 194.177 84.3201C193.467 84.6171 192.684 84.7671 191.833 84.7671C190.736 84.7671 189.763 84.5331 188.918 84.0651C188.073 83.6001 187.412 82.9531 186.939 82.1271C186.465 81.3021 186.229 80.3671 186.229 79.3251C186.229 78.2831 186.456 77.3501 186.908 76.5241C187.361 75.6981 187.984 75.0551 188.776 74.5951C189.568 74.1351 190.459 73.9041 191.446 73.9041C192.433 73.9041 193.321 74.1351 194.105 74.5951C194.89 75.0551 195.506 75.6941 195.953 76.5141C196.401 77.3321 196.624 78.2701 196.624 79.3251L196.603 79.7721Z" fill="#00249C"/>
<path fill-rule="evenodd" clip-rule="evenodd" d="M98.5974 84.5592H100.1V51.3262H98.5974V84.5592Z" fill="#00249C"/>
<path d="M188.586 16.5859C188.77 16.3949 188.991 16.2425 189.235 16.1377C189.479 16.0329 189.742 15.9777 190.007 15.9754C190.273 15.9731 190.536 16.0237 190.782 16.1243C191.028 16.2248 191.251 16.3733 191.439 16.5611C191.627 16.7489 191.775 16.9722 191.876 17.218C191.976 17.4638 192.027 17.7272 192.025 17.9927C192.022 18.2583 191.967 18.5207 191.862 18.7647C191.757 19.0087 191.605 19.2294 191.414 19.4139L190.621 20.2069L187.793 17.3789L188.586 16.5859ZM186.379 18.7929L178 27.1719V29.9999H180.828L189.208 21.6209L186.378 18.7929H186.379Z" fill="black"/>
</svg>
